# xmcd
#
# Track frame offsets:
#   150
#   15890
#   38130
#   51887
#   67965
#   75432
#   89092
#   107385
#   120452
#   142397
#   166030
#   173775
#   210887
#   228505
#   251092
#   268335
#   283282
#   304875
#
# Disc length: 4589 seconds
#
# Revision: 5
# Processed by: cddbd v1.5.1PL0 Copyright (c) Steve Scherf et al.
# Submitted via: Media_Universe 3.0
#
DISCID=f511eb12
DTITLE=Nina Simone - The Very Best of Nina Simone - Sugar In My Bowl (1967-1972) - Disc 2 of 2
DYEAR=1900
DGENRE=Jazz
TTITLE0=I Think It's Going To Rain Today
TTITLE1=I Get Along Without You Very Well (Except Sometimes)
TTITLE2=Nobody's Fault But Mine
TTITLE3=Another Spring
TTITLE4=Compassion
TTITLE5=Seems I'm Never Tired Of Lovin' You
TTITLE6=I Shall Be Released
TTITLE7=To Be Young, Gifted, And Black
TTITLE8=Just Like Tom Thumb's Blues
TTITLE9=Suzanne
TTITLE10=My Father - Dialog
TTITLE11=Jelly Roll
TTITLE12=Tell It Like It Is
TTITLE13=Mr. Bojangles
TTITLE14=Here Comes The Sun
TTITLE15=Ooh Child
TTITLE16=Poppies
TTITLE17=22nd Century
EXTD=
EXTT0=
EXTT1=
EXTT2=
EXTT3=
EXTT4=
EXTT5=
EXTT6=
EXTT7=
EXTT8=
EXTT9=
EXTT10=
EXTT11=
EXTT12=
EXTT13=
EXTT14=
EXTT15=
EXTT16=
EXTT17=
PLAYORDER=
